<svg width="393" height="304" viewBox="0 0 393 304" fill="none" xmlns="http://www.w3.org/2000/svg">
<g opacity="0.6">
<path d="M376.944 193.246L296.261 146.414C291.836 143.865 284.21 144.148 279.126 147.075L109.852 244.799C104.768 247.726 104.203 252.164 108.628 254.713L189.311 301.545C193.736 304.094 201.362 303.811 206.446 300.884L375.72 203.16C380.804 200.233 381.369 195.796 376.944 193.246Z" fill="white"/>
<path d="M196.749 304C193.83 304 191.006 303.433 188.935 302.206L108.252 255.374C106.086 254.147 104.957 252.353 104.957 250.464C104.957 248.198 106.651 245.932 109.476 244.233L278.75 146.509C284.022 143.487 292.024 143.204 296.543 145.848L377.226 192.68C379.392 193.907 380.522 195.701 380.522 197.59C380.522 199.856 378.827 202.122 376.003 203.821L206.728 301.545C203.904 303.15 200.232 304 196.749 304ZM288.823 145.376C285.622 145.376 282.139 146.131 279.503 147.736L110.229 245.46C107.781 246.876 106.369 248.67 106.369 250.464C106.369 251.881 107.31 253.202 109.005 254.147L189.688 300.979C193.83 303.433 201.268 303.056 206.069 300.318L375.344 202.594C377.791 201.178 379.204 199.384 379.204 197.59C379.204 196.173 378.262 194.851 376.567 193.907L295.884 147.075C294.096 145.942 291.554 145.376 288.823 145.376Z" fill="#2A2F37"/>
<path d="M186.958 284.266L102.98 235.546C100.249 233.941 98.9313 231.769 99.0255 229.503V217.323L103.733 222.8C104.015 222.611 104.298 222.422 104.674 222.233L276.396 123.093C283.175 119.127 293.531 118.75 299.462 122.149L382.216 170.208C383.911 168.414 387.394 164.449 387.394 164.449V176.44C387.488 179.178 385.606 182.01 381.746 184.182L210.023 283.322C203.151 287.288 192.889 287.665 186.958 284.266Z" fill="white"/>
<path d="M197.031 287.288C193.171 287.288 189.405 286.533 186.675 284.927L102.697 236.207C99.8727 234.602 98.3663 232.242 98.3663 229.692V229.598V217.418C98.3663 217.134 98.5546 216.851 98.8371 216.757C99.1195 216.662 99.4019 216.757 99.5902 216.946L103.827 221.95C104.015 221.855 104.109 221.761 104.298 221.667L276.02 122.527C282.986 118.467 293.625 118.089 299.744 121.582L382.028 169.358C383.817 167.376 386.829 164.071 386.829 164.071C387.018 163.882 387.3 163.788 387.582 163.882C387.865 163.977 388.053 164.26 388.053 164.543V176.534C388.147 179.556 385.982 182.672 382.028 184.938L210.306 284.078C206.54 286.155 201.644 287.288 197.031 287.288ZM99.7785 229.315C99.7785 229.409 99.7785 229.409 99.7785 229.503C99.6844 231.581 101.002 233.469 103.356 234.885L187.334 283.606C192.983 286.91 203.057 286.533 209.647 282.661L381.369 183.521C384.852 181.538 386.735 178.895 386.641 176.345V176.251V166.243C385.511 167.564 383.723 169.453 382.687 170.586C382.499 170.869 382.122 170.869 381.84 170.68L299.085 122.621C293.437 119.316 283.363 119.694 276.773 123.565L105.051 222.8C104.768 222.988 104.486 223.177 104.109 223.366C103.827 223.555 103.45 223.461 103.168 223.272L99.7785 219.212V229.315Z" fill="#2A2F37"/>
<path d="M141.579 254.336L146.381 257.168C147.04 257.546 147.51 257.168 147.51 256.318C147.51 255.469 146.946 254.43 146.381 254.052L141.579 251.22C140.92 250.842 140.449 251.22 140.449 252.07C140.449 252.919 140.92 253.958 141.579 254.336Z" fill="white"/>
<path d="M146.851 257.923C146.569 257.923 146.286 257.829 146.004 257.735L141.202 254.902C140.355 254.43 139.696 253.203 139.696 252.07C139.696 251.314 139.979 250.748 140.449 250.559C140.92 250.276 141.391 250.37 141.956 250.653L146.757 253.486C147.604 253.958 148.263 255.185 148.263 256.318C148.263 257.074 147.981 257.64 147.51 257.829C147.322 257.924 147.134 257.923 146.851 257.923ZM141.108 251.786C141.108 251.786 141.108 251.881 141.108 252.07C141.108 252.73 141.579 253.486 141.956 253.675L146.757 256.507H146.851C146.851 256.507 146.851 256.413 146.851 256.224C146.851 255.563 146.381 254.808 146.004 254.619L141.108 251.786C141.203 251.786 141.108 251.786 141.108 251.786Z" fill="#2A2F37"/>
<path d="M276.397 122.999C283.175 119.033 293.531 118.655 299.462 122.054L382.216 170.114C383.911 168.32 387.395 164.354 387.395 164.354V176.345C387.489 179.084 385.606 181.916 381.746 184.088L210.024 283.228C206.446 285.305 201.927 286.344 197.596 286.438L197.785 168.32L276.397 122.999Z" fill="white"/>
<path d="M197.596 287.288C197.408 287.288 197.22 287.193 197.126 287.099C197.032 287.005 196.937 286.816 196.937 286.627L197.126 168.509C197.126 168.225 197.22 168.037 197.502 167.942L276.208 122.527L276.585 123.093L276.208 122.527C283.175 118.467 293.813 118.089 299.933 121.582L382.216 169.358C384.005 167.376 387.018 164.071 387.018 164.071C387.206 163.882 387.489 163.788 387.771 163.882C388.053 163.977 388.242 164.26 388.242 164.543V176.534C388.336 179.556 386.171 182.672 382.216 184.938L210.494 284.078C206.823 285.966 202.304 287.099 197.596 287.288ZM198.444 168.792L198.255 285.777C202.398 285.588 206.446 284.455 209.553 282.661L381.275 183.521C384.758 181.538 386.641 178.895 386.547 176.345V176.251V166.243C385.417 167.564 383.629 169.453 382.593 170.586C382.405 170.869 382.028 170.869 381.746 170.68L298.992 122.621C293.343 119.316 283.269 119.694 276.679 123.565L198.444 168.792Z" fill="#2A2F37"/>
<path d="M383.44 158.595L299.462 109.874C293.531 106.475 283.269 106.853 276.396 110.819L104.674 209.959C97.8954 213.924 97.1422 219.873 102.979 223.272L186.957 271.992C192.889 275.391 203.15 275.013 210.023 271.048L381.745 171.908C388.618 167.942 389.371 161.994 383.44 158.595Z" fill="white"/>
<path d="M197.031 274.919C193.171 274.919 189.405 274.164 186.675 272.559L102.697 223.838C99.8727 222.233 98.3663 219.967 98.3663 217.418C98.3663 214.396 100.532 211.469 104.392 209.298L276.114 110.158C283.081 106.098 293.719 105.72 299.839 109.213L383.817 157.934C386.641 159.539 388.147 161.805 388.147 164.354C388.147 167.376 385.982 170.303 382.122 172.474L210.4 271.614C206.54 273.88 201.644 274.919 197.031 274.919ZM289.482 108.175C285.058 108.175 280.444 109.213 276.867 111.291L105.051 210.431C101.661 212.414 99.7785 214.868 99.7785 217.323C99.7785 219.306 101.097 221.1 103.356 222.516L187.334 271.237C192.983 274.541 203.057 274.164 209.647 270.292L381.369 171.152C384.758 169.17 386.641 166.715 386.641 164.26C386.641 162.277 385.323 160.483 383.063 159.067L299.085 110.346C296.543 108.93 293.06 108.175 289.482 108.175Z" fill="#2A2F37"/>
<path d="M376.944 160.483L296.261 113.651C291.836 111.102 284.21 111.385 279.126 114.312L109.852 212.036C104.768 214.963 104.203 219.401 108.628 221.95L189.311 268.782C193.736 271.331 201.362 271.048 206.446 268.121L375.72 170.397C380.804 167.47 381.369 163.032 376.944 160.483Z" fill="white"/>
<path d="M196.749 271.237C193.83 271.237 191.006 270.67 188.935 269.443L108.252 222.611C106.086 221.383 104.957 219.589 104.957 217.701C104.957 215.435 106.651 213.169 109.476 211.469L278.75 113.746C284.022 110.724 292.024 110.441 296.543 113.085L377.226 159.916C379.392 161.144 380.522 162.938 380.522 164.826C380.522 167.092 378.827 169.358 376.003 171.058L206.728 268.687C203.904 270.387 200.232 271.237 196.749 271.237ZM288.823 112.613C285.622 112.613 282.139 113.368 279.503 114.973L110.229 212.697C107.781 214.113 106.369 215.907 106.369 217.701C106.369 219.117 107.31 220.439 109.005 221.383L189.688 268.215C193.83 270.67 201.268 270.292 206.069 267.554L375.344 169.83C377.791 168.414 379.204 166.62 379.204 164.826C379.204 163.41 378.262 162.088 376.567 161.144L295.884 114.312C294.096 113.179 291.554 112.613 288.823 112.613Z" fill="#2A2F37"/>
<path d="M209.638 243.644L154.197 211.478L156.356 210.256L211.755 242.359L209.638 243.644Z" stroke="#2A2F37" stroke-width="1.5"/>
<path d="M170.008 234.016L142.712 218.181L144.871 216.96L172.196 232.722L170.008 234.016Z" stroke="#2A2F37" stroke-width="1.5"/>
<path d="M184.031 242.133L176.132 237.538L178.293 236.316L186.145 240.85L184.031 242.133Z" stroke="#2A2F37" stroke-width="1.5"/>
<path d="M198.158 250.26L190.239 245.732L192.42 244.442L200.252 249.044L198.158 250.26Z" stroke="#2A2F37" stroke-width="1.5"/>
<path d="M170.387 227.504L148.434 214.86L150.62 213.566L172.474 226.292L170.387 227.504Z" stroke="#2A2F37" stroke-width="1.5"/>
<path d="M198.913 244.027L176.985 231.398L179.14 230.178L200.996 242.818L198.913 244.027Z" stroke="#2A2F37" stroke-width="1.5"/>
<path d="M181.193 215.365C180.776 215.602 180.151 215.747 179.473 215.747C178.784 215.747 178.15 215.598 177.733 215.354C177.322 215.113 177.257 214.878 177.257 214.774C177.257 214.67 177.322 214.435 177.733 214.194C178.15 213.95 178.784 213.801 179.473 213.801C180.161 213.801 180.796 213.95 181.212 214.194C181.643 214.446 181.688 214.663 181.688 214.738C181.688 214.828 181.628 215.069 181.193 215.365Z" stroke="#2A2F37" stroke-width="1.5"/>
<path d="M187.543 218.929L187.532 218.935L187.521 218.942C187.104 219.186 186.469 219.335 185.781 219.335C185.093 219.335 184.458 219.186 184.041 218.942C183.63 218.701 183.565 218.466 183.565 218.362C183.565 218.258 183.63 218.022 184.041 217.782C184.458 217.538 185.093 217.389 185.781 217.389C186.465 217.389 187.096 217.536 187.513 217.777C188.016 218.09 188.067 218.336 188.067 218.397C188.067 218.442 188.035 218.663 187.543 218.929Z" stroke="#2A2F37" stroke-width="1.5"/>
<path d="M193.851 222.612L193.839 222.618L193.828 222.624C193.411 222.868 192.777 223.017 192.089 223.017C191.4 223.017 190.766 222.868 190.349 222.624C189.938 222.384 189.873 222.148 189.873 222.044C189.873 221.94 189.938 221.705 190.349 221.464C190.766 221.22 191.4 221.071 192.089 221.071C192.777 221.071 193.411 221.22 193.828 221.464L193.839 221.471L193.851 221.477C194.322 221.732 194.375 221.971 194.375 222.044C194.375 222.118 194.322 222.357 193.851 222.612Z" stroke="#2A2F37" stroke-width="1.5"/>
<path d="M200.23 226.307C199.813 226.55 199.179 226.7 198.49 226.7C197.802 226.7 197.168 226.55 196.751 226.307C196.339 226.066 196.275 225.831 196.275 225.727C196.275 225.623 196.339 225.387 196.751 225.147C197.168 224.903 197.802 224.753 198.49 224.753C199.179 224.753 199.813 224.903 200.23 225.147C200.642 225.387 200.706 225.623 200.706 225.727C200.706 225.831 200.642 226.066 200.23 226.307Z" stroke="#2A2F37" stroke-width="1.5"/>
<path d="M206.538 229.989C206.121 230.233 205.486 230.382 204.798 230.382C204.11 230.382 203.475 230.233 203.059 229.989C202.647 229.748 202.583 229.513 202.583 229.409C202.583 229.305 202.647 229.07 203.059 228.829C203.475 228.585 204.11 228.436 204.798 228.436C205.486 228.436 206.121 228.585 206.538 228.829C206.949 229.07 207.014 229.305 207.014 229.409C207.014 229.513 206.949 229.748 206.538 229.989Z" stroke="#2A2F37" stroke-width="1.5"/>
<path d="M334.205 159.993L326.172 155.287L328.369 153.987L336.47 158.687L334.205 159.993Z" stroke="#2A2F37" stroke-width="1.5"/>
<path d="M347.572 167.737L339.466 163.034L341.733 161.727L349.839 166.429L347.572 167.737Z" stroke="#2A2F37" stroke-width="1.5"/>
<path d="M291.456 134.97L283.341 130.263L285.532 128.966L293.648 133.674L291.456 134.97Z" stroke="#2A2F37" stroke-width="1.5"/>
<path d="M332.127 165.562L320.247 158.682L322.438 157.386L334.318 164.267L332.127 165.562Z" stroke="#2A2F37" stroke-width="1.5"/>
<path d="M341.642 171.135L337.299 168.606L339.567 167.298L343.91 169.827L341.642 171.135Z" stroke="#2A2F37" stroke-width="1.5"/>
<path d="M391.913 248.387L375.72 257.735V238.945L391.913 229.598V248.387Z" fill="white"/>
<path d="M375.72 258.49C375.626 258.49 375.438 258.49 375.343 258.396C375.155 258.301 374.967 258.018 374.967 257.829V239.04C374.967 238.756 375.061 238.568 375.343 238.473L391.536 229.126C391.725 229.031 392.007 229.031 392.29 229.126C392.478 229.22 392.666 229.503 392.666 229.692V248.482C392.666 248.765 392.572 248.954 392.29 249.048L376.097 258.396C376.002 258.396 375.814 258.49 375.72 258.49ZM376.473 239.323V256.507L391.254 247.915V230.731L376.473 239.323Z" fill="#2A2F37"/>
<path d="M375.72 238.945L359.527 229.598L375.72 220.156L391.914 229.598L375.72 238.945Z" fill="white"/>
<path d="M375.721 239.701C375.626 239.701 375.438 239.701 375.344 239.606L359.151 230.259C358.963 230.164 358.774 229.881 358.774 229.692C358.774 229.503 358.868 229.22 359.151 229.126L375.344 219.778C375.532 219.684 375.815 219.684 376.097 219.778L392.29 229.126C392.479 229.22 392.667 229.503 392.667 229.692C392.667 229.881 392.573 230.164 392.29 230.259L376.097 239.606C376.003 239.606 375.815 239.701 375.721 239.701ZM360.94 229.598L375.721 238.19L390.501 229.598L375.721 221.006L360.94 229.598Z" fill="#2A2F37"/>
<path d="M375.72 257.735L359.527 248.387V229.598L375.72 238.945V257.735Z" fill="white"/>
<path d="M375.721 258.49C375.626 258.49 375.438 258.49 375.344 258.396L359.151 249.048C358.963 248.954 358.774 248.67 358.774 248.482V229.692C358.774 229.409 358.868 229.22 359.151 229.126C359.339 229.031 359.622 229.031 359.904 229.126L376.097 238.473C376.285 238.568 376.474 238.851 376.474 239.04V257.829C376.474 258.112 376.38 258.301 376.097 258.396C376.003 258.396 375.815 258.49 375.721 258.49ZM360.186 247.915L374.967 256.507V239.323L360.186 230.731V247.915Z" fill="#2A2F37"/>
<path d="M369.133 242.774V246.324L366.114 244.558V241.008L369.133 242.774Z" stroke="#2A2F37" stroke-width="1.5"/>
<path d="M112.206 172.757L95.3536 182.577V163.032L112.206 153.213V172.757Z" fill="white"/>
<path d="M95.3539 183.238C95.2597 183.238 95.0714 183.238 94.9773 183.144C94.789 183.049 94.6007 182.766 94.6007 182.577V163.032C94.6007 162.749 94.6949 162.56 94.9773 162.466L111.829 152.646C112.018 152.552 112.3 152.552 112.583 152.646C112.771 152.741 112.959 153.024 112.959 153.213V172.757C112.959 173.041 112.865 173.23 112.583 173.324L95.7305 183.144C95.6363 183.238 95.448 183.238 95.3539 183.238ZM96.0129 163.41V181.35L111.453 172.38V154.44L96.0129 163.41Z" fill="#2A2F37"/>
<path d="M95.3539 163.032L78.5018 153.213L95.3539 143.488L112.206 153.213L95.3539 163.032Z" fill="white"/>
<path d="M95.3541 163.693C95.2599 163.693 95.0716 163.693 94.9775 163.599L78.1254 153.779C77.9371 153.685 77.7488 153.401 77.7488 153.213C77.7488 153.024 77.8429 152.741 78.1254 152.646L94.9775 142.827C95.1658 142.732 95.4482 142.732 95.7306 142.827L112.583 152.646C112.771 152.741 112.959 153.024 112.959 153.213C112.959 153.401 112.865 153.685 112.583 153.779L95.7306 163.599C95.6365 163.693 95.4482 163.693 95.3541 163.693ZM79.9141 153.213L95.3541 162.182L110.794 153.213L95.3541 144.243L79.9141 153.213Z" fill="#2A2F37"/>
<path d="M95.3539 182.577L78.5018 172.757V153.213L95.3539 163.032V182.577Z" fill="white"/>
<path d="M95.3541 183.238C95.2599 183.238 95.0716 183.238 94.9775 183.144L78.1254 173.324C77.9371 173.23 77.7488 172.946 77.7488 172.757V153.213C77.7488 152.929 77.8429 152.741 78.1254 152.646C78.3137 152.552 78.5961 152.552 78.8785 152.646L95.7306 162.466C95.9189 162.56 96.1072 162.843 96.1072 163.032V182.577C96.1072 182.86 96.0131 183.049 95.7306 183.144C95.6365 183.238 95.4482 183.238 95.3541 183.238ZM79.161 172.38L94.6009 181.35V163.41L79.161 154.44V172.38Z" fill="#2A2F37"/>
<path d="M88.4843 166.957V170.698L85.277 168.833V165.092L88.4843 166.957Z" stroke="#2A2F37" stroke-width="1.5"/>
<path d="M210.4 21.2148L175.283 0.914715C174.624 0.537038 173.965 0.537038 173.495 0.725876L170.105 2.70868C170.105 2.70868 171.612 3.27519 172.459 3.55845V29.2404C172.459 31.3177 173.683 33.7726 175.283 34.6223L208.893 54.0727V57.0941L212.377 55.1113C212.942 54.7336 213.318 53.9783 213.318 52.8452V26.6911C213.224 24.6139 212 22.159 210.4 21.2148Z" fill="white"/>
<path d="M208.894 57.8494C208.8 57.8494 208.612 57.8494 208.517 57.755C208.329 57.6606 208.141 57.3773 208.141 57.1885V54.5447L174.907 35.2832C173.119 34.2446 171.706 31.6009 171.706 29.2404V4.12493L169.729 3.464C169.447 3.36958 169.259 3.18074 169.259 2.89749C169.259 2.61423 169.353 2.33097 169.635 2.23655L173.024 0.253751C173.119 0.253751 173.119 0.159332 173.213 0.159332C173.872 -0.123925 174.719 -0.029506 175.566 0.44259L210.777 20.6483C212.566 21.6869 213.978 24.3306 213.978 26.6911V52.8452C213.978 54.0726 213.601 55.1113 212.848 55.5833C212.848 55.5833 212.754 55.6778 212.66 55.6778L209.176 57.6606C209.176 57.8494 208.988 57.8494 208.894 57.8494ZM171.706 2.61423L172.648 2.99191C172.93 3.08632 173.119 3.36958 173.119 3.65284V29.3348C173.119 31.1288 174.248 33.3949 175.566 34.1502L209.176 53.6005C209.365 53.695 209.553 53.9782 209.553 54.1671V55.961L211.812 54.6392L211.907 54.5447C212.283 54.2615 212.566 53.695 212.566 52.8452V26.6911C212.566 24.8971 211.436 22.6311 210.118 21.8757L174.907 1.4812C174.625 1.29236 174.154 1.10352 173.778 1.38678C173.778 1.38678 173.683 1.38678 173.683 1.4812L171.706 2.61423Z" fill="#2A2F37"/>
<path d="M207.011 56.9997L171.8 36.6996C170.2 35.7554 168.976 33.395 168.976 31.3177V5.06923C168.976 2.99201 170.2 2.04782 171.8 2.89759L206.917 23.1977C208.517 24.1419 209.741 26.5024 209.741 28.5796V54.7337C209.835 56.9997 208.517 57.9439 207.011 56.9997Z" fill="white"/>
<path d="M208.047 58.0383C207.576 58.0383 207.105 57.8494 206.54 57.5662L171.424 37.2661C169.635 36.2275 168.223 33.5837 168.223 31.2232V5.06915C168.223 3.74729 168.694 2.61426 169.541 2.14216C170.294 1.67007 171.236 1.76449 172.083 2.331L207.199 22.6311C208.988 23.6697 210.4 26.3135 210.4 28.6739V54.828C210.4 56.1499 209.93 57.2829 209.082 57.755C208.8 57.9439 208.517 58.0383 208.047 58.0383ZM207.293 56.4331C207.576 56.622 208.047 56.8108 208.423 56.622C208.8 56.4331 209.082 55.7722 209.082 54.9224V28.6739C209.082 26.88 207.952 24.6139 206.634 23.8586L171.518 3.55845C171.236 3.36961 170.765 3.18077 170.388 3.36961C170.012 3.55845 169.729 4.21938 169.729 5.06915V31.2232C169.729 33.0172 170.859 35.2833 172.177 36.0386L207.293 56.4331Z" fill="#2A2F37"/>
<path fill-rule="evenodd" clip-rule="evenodd" d="M180.016 23.9614C179.885 24.0415 179.681 24.2897 179.681 24.8972C179.681 25.4988 179.892 26.2261 180.27 26.8999C180.648 27.5746 181.153 28.1233 181.668 28.4186C182.189 28.7172 182.482 28.6452 182.602 28.5711C182.733 28.491 182.937 28.2428 182.937 27.6353C182.937 27.0369 182.728 26.3349 182.351 25.6723C181.978 25.0181 181.471 24.4561 180.933 24.1046C180.422 23.8168 180.135 23.8881 180.016 23.9614ZM179.26 22.7172C179.987 22.2719 180.871 22.3912 181.668 22.8479L181.685 22.8573L181.701 22.8676C182.475 23.3666 183.139 24.1219 183.61 24.9482C184.079 25.7728 184.388 26.7231 184.388 27.6353C184.388 28.5385 184.074 29.3762 183.358 29.8154C182.631 30.2606 181.747 30.1414 180.95 29.6846C180.147 29.2246 179.475 28.4514 179.006 27.6154C178.537 26.7786 178.23 25.8062 178.23 24.8972C178.23 23.994 178.544 23.1564 179.26 22.7172Z" fill="#2A2F37"/>
<path fill-rule="evenodd" clip-rule="evenodd" d="M186.794 29.0877C186.791 29.6495 186.978 30.3707 187.393 31.0919C187.808 31.813 188.338 32.3359 188.824 32.6146C189.328 32.9034 189.651 32.868 189.808 32.7772C189.965 32.6864 190.157 32.4233 190.16 31.841C190.162 31.2793 189.976 30.558 189.56 29.8369C189.145 29.1157 188.616 28.5929 188.129 28.3142C187.625 28.0253 187.302 28.0608 187.145 28.1516C186.988 28.2423 186.796 28.5054 186.794 29.0877ZM185.342 29.0802C185.346 28.2383 185.63 27.3467 186.419 26.8899C187.208 26.4332 188.12 26.6319 188.849 27.0496C189.595 27.4775 190.297 28.2045 190.817 29.1091C191.338 30.0136 191.615 30.9861 191.611 31.8486C191.608 32.6905 191.323 33.582 190.534 34.0388C189.746 34.4956 188.834 34.2969 188.105 33.8792C187.358 33.4513 186.657 32.7243 186.136 31.8197C185.615 30.9151 185.338 29.9426 185.342 29.0802Z" fill="#2A2F37"/>
<path fill-rule="evenodd" clip-rule="evenodd" d="M193.95 33.2559C193.948 33.8176 194.134 34.5389 194.55 35.2601C194.965 35.9812 195.494 36.504 195.98 36.7827C196.485 37.0716 196.808 37.0361 196.965 36.9454C197.121 36.8546 197.314 36.5915 197.316 36.0092C197.319 35.4475 197.132 34.7262 196.717 34.005C196.302 33.2839 195.772 32.7611 195.286 32.4824C194.782 32.1935 194.459 32.229 194.302 32.3198C194.145 32.4105 193.953 32.6736 193.95 33.2559ZM192.498 33.2483C192.502 32.4064 192.787 31.5149 193.575 31.0581C194.364 30.6014 195.276 30.8001 196.005 31.2178C196.752 31.6457 197.453 32.3727 197.974 33.2773C198.495 34.1818 198.772 35.1543 198.768 36.0168C198.764 36.8587 198.48 37.7502 197.691 38.207C196.902 38.6637 195.99 38.465 195.261 38.0473C194.515 37.6194 193.813 36.8924 193.293 35.9878C192.772 35.0833 192.495 34.1108 192.498 33.2483Z" fill="#2A2F37"/>
<path d="M236.29 210.336L293.907 176.912C300.121 173.324 299.368 166.998 292.118 162.843C284.869 158.689 274.042 158.217 267.735 161.805L210.117 195.229C203.904 198.817 204.657 205.143 211.906 209.298C219.155 213.452 230.076 213.924 236.29 210.336Z" fill="white"/>
<path d="M225.746 213.452C220.851 213.452 215.673 212.225 211.624 209.959C207.576 207.598 205.317 204.482 205.317 201.366C205.317 198.723 206.917 196.362 209.93 194.663L267.547 161.238C273.949 157.556 285.246 157.934 292.59 162.277C296.638 164.637 298.898 167.753 298.898 170.869C298.898 173.513 297.297 175.873 294.284 177.573L236.667 210.997C233.749 212.602 229.794 213.452 225.746 213.452ZM278.374 160.105C274.514 160.105 270.842 160.861 268.112 162.466L210.495 195.796C208.047 197.212 206.635 199.195 206.635 201.272C206.635 203.916 208.706 206.56 212.283 208.637C219.25 212.697 229.889 213.169 235.914 209.675L293.531 176.251C295.979 174.835 297.391 172.852 297.391 170.775C297.391 168.131 295.32 165.487 291.742 163.41C287.977 161.238 283.081 160.105 278.374 160.105Z" fill="#2A2F37"/>
<path d="M267.923 155.668V148.869L275.926 108.364L268.017 103.454L252.201 112.235L252.107 164.449C252.107 167.942 253.425 170.303 255.402 171.152L262.463 175.59L263.31 172.191L264.534 166.054C266.605 163.127 267.923 159.256 267.923 155.668Z" fill="white"/>
<path d="M262.463 176.345C262.369 176.345 262.18 176.345 262.086 176.251L255.119 171.813C252.766 170.869 251.448 168.131 251.448 164.543L251.542 112.329C251.542 112.046 251.636 111.857 251.918 111.668L267.735 102.887C267.923 102.793 268.206 102.793 268.488 102.887L276.396 107.797C276.679 107.986 276.773 108.269 276.679 108.552L268.676 148.964V155.668C268.676 159.161 267.358 163.127 265.287 166.337L264.063 172.285L263.122 175.684C263.028 175.873 262.934 176.062 262.651 176.157C262.557 176.251 262.557 176.345 262.463 176.345ZM255.778 170.586L261.992 174.457L262.651 172.002L263.875 165.959C263.875 165.865 263.969 165.77 263.969 165.676C266.04 162.655 267.264 158.878 267.264 155.668V148.869V148.775L275.173 108.741L268.017 104.304L252.86 112.707L252.766 164.449C252.766 167.47 253.801 169.736 255.59 170.491C255.684 170.491 255.778 170.586 255.778 170.586Z" fill="#2A2F37"/>
<path d="M267.923 175.401C263.499 177.856 260.015 175.118 260.015 169.358L260.109 117.145L275.926 108.364L275.832 160.577C275.832 166.337 272.254 173.041 267.923 175.401Z" fill="white"/>
<path d="M264.816 177.006C263.969 177.006 263.122 176.817 262.368 176.345C260.391 175.212 259.262 172.663 259.356 169.358L259.45 117.145C259.45 116.861 259.544 116.672 259.827 116.484L275.643 107.703C275.831 107.608 276.114 107.608 276.302 107.703C276.49 107.797 276.679 108.08 276.679 108.269L276.584 160.483C276.584 166.431 272.819 173.418 268.3 175.968C267.076 176.723 265.852 177.006 264.816 177.006ZM260.768 117.617L260.674 169.358C260.674 172.097 261.521 174.174 263.027 175.118C264.251 175.873 265.852 175.684 267.547 174.835C271.689 172.569 275.078 166.148 275.172 160.672L275.266 109.685L260.768 117.617Z" fill="#2A2F37"/>
<path d="M310.666 80.3212C310.666 67.1025 301.44 50.9568 289.954 44.3475C284.023 40.9484 278.656 40.6651 274.89 43.12L212.095 79.4714L244.481 128.286L304.452 93.8231C304.546 93.8231 304.546 93.7287 304.64 93.7287L304.735 93.6343C308.406 91.4626 310.666 86.8361 310.666 80.3212Z" fill="white"/>
<path d="M244.575 129.041C244.387 129.041 244.104 128.947 244.01 128.758L211.624 79.9434C211.53 79.7546 211.436 79.5657 211.53 79.3769C211.53 79.188 211.718 78.9992 211.907 78.9048L274.702 42.5534C274.702 42.5534 274.702 42.5534 274.796 42.5534C278.938 39.9097 284.493 40.3818 290.518 43.7809C302.098 50.4846 311.607 66.9136 311.607 80.4155C311.607 86.9304 309.442 91.8402 305.488 94.2951L305.393 94.3895L305.111 94.5784L245.046 129.136C244.763 128.947 244.669 129.041 244.575 129.041ZM213.13 79.7546L244.763 127.342L304.358 93.0676C304.358 93.0676 304.358 93.0676 304.452 93.0676C308.029 90.896 310.007 86.3639 310.007 80.3211C310.007 67.2912 300.874 51.4288 289.671 44.9139C284.211 41.7037 279.127 41.326 275.361 43.6865C275.361 43.6865 275.267 43.6865 275.267 43.7809L213.13 79.7546Z" fill="#2A2F37"/>
<path d="M281.104 97.9775C281.104 84.3811 271.595 67.7633 259.827 60.9652C254.461 57.8493 249.565 57.2828 245.893 58.888H245.799H245.705C245.517 58.9824 245.423 59.0768 245.234 59.1712C223.016 70.1238 198.35 75.4113 173.589 74.3727L166.528 74.0894L223.675 172.285L226.782 166.242C238.079 144.337 254.555 125.642 274.796 111.668C278.656 109.685 281.104 104.87 281.104 97.9775Z" fill="white"/>
<path d="M223.675 173.135C223.392 173.135 223.204 173.041 223.11 172.757L165.963 74.5615C165.869 74.3727 165.869 74.0894 165.963 73.8062C166.057 73.6173 166.34 73.4285 166.622 73.4285L173.683 73.7117C198.255 74.6559 222.921 69.4629 244.952 58.5103C245.14 58.4158 245.328 58.3214 245.422 58.227L245.799 58.7935L245.516 58.1326C245.611 58.1326 245.611 58.1326 245.705 58.0382C249.753 56.3386 254.931 57.094 260.203 60.1154C272.16 67.008 281.857 83.909 281.857 97.6942C281.857 104.587 279.503 109.78 275.172 112.235C255.119 126.02 238.644 144.809 227.44 166.526L224.334 172.569C224.145 173.041 223.957 173.135 223.675 173.135ZM167.752 75.0336L223.58 170.963L226.122 166.148C237.42 144.243 254.084 125.265 274.325 111.291C278.279 109.119 280.35 104.398 280.35 97.9775C280.35 84.5699 270.936 68.2354 259.356 61.6261C254.46 58.7935 249.659 58.0382 245.987 59.6433H245.893C245.705 59.7377 245.516 59.8321 245.422 59.9266C223.11 70.8792 198.255 76.1666 173.401 75.2224L167.752 75.0336Z" fill="#2A2F37"/>
<path d="M230.359 150.286C230.359 124.132 212.095 92.4068 189.5 79.2825C178.202 72.7676 168.034 72.1067 160.691 76.3555C160.691 76.3555 160.691 76.3555 160.597 76.3555L153.913 80.3211L156.266 79.849C151.465 84.8532 148.734 92.69 148.734 102.887C148.734 129.041 166.999 160.766 189.594 173.89C198.444 178.989 206.634 180.5 213.319 178.8L212.283 180.405L218.497 176.817C218.497 176.817 218.591 176.817 218.591 176.723L218.779 176.629C225.84 172.285 230.359 163.127 230.359 150.286Z" fill="white"/>
<path d="M212.189 181.161C212.001 181.161 211.812 181.066 211.718 180.972C211.53 180.689 211.436 180.405 211.624 180.122L211.718 180.028C204.94 181.161 197.22 179.272 189.217 174.646C166.528 161.522 147.982 129.325 147.982 103.076C147.982 93.9176 150.147 86.4585 154.383 81.171L154.007 81.0766C153.63 81.171 153.348 80.9821 153.16 80.6045C153.065 80.3212 153.16 79.9435 153.442 79.7547L160.126 75.7891L160.221 75.6947C168.129 71.1626 178.673 72.2012 189.782 78.6217C212.471 91.7459 231.018 123.943 231.018 150.191C231.018 162.844 226.782 172.474 219.062 177.101C219.062 177.101 219.062 177.101 218.968 177.101L218.779 177.195L218.685 177.29L212.472 180.878C212.377 181.066 212.283 181.161 212.189 181.161ZM156.737 79.4714C156.925 79.8491 156.925 80.1324 156.643 80.3212C151.842 85.3254 149.3 93.1622 149.3 102.887C149.3 128.758 167.47 160.294 189.782 173.23C198.161 178.139 206.258 179.745 213.036 178.139C213.319 178.045 213.601 178.139 213.79 178.423C213.79 178.423 213.884 178.517 213.884 178.612L218.026 176.251L218.12 176.345C218.12 176.345 218.12 176.251 218.214 176.251L218.403 176.157C218.403 176.157 218.403 176.157 218.497 176.157C225.84 171.719 229.888 162.655 229.888 150.38C229.888 124.509 211.718 92.9734 189.406 80.038C178.767 73.9007 168.788 72.8621 161.256 77.111L160.785 76.5444L161.162 77.111L156.737 79.4714Z" fill="#2A2F37"/>
<path d="M212.179 180.404C228.119 171.174 228.101 141.214 212.138 113.487C196.176 85.7592 170.314 70.764 154.374 79.9939C138.434 89.2237 138.452 119.184 154.415 146.911C170.377 174.638 196.24 189.634 212.179 180.404Z" fill="white"/>
<path d="M201.551 183.805C195.808 183.805 189.5 181.916 182.91 178.139C160.221 165.015 141.768 132.818 141.768 106.57C141.768 93.6343 146.099 84.0036 154.101 79.4714C162.009 74.8449 172.554 75.8835 183.663 82.304C206.352 95.4283 224.899 127.625 224.899 153.874C224.899 166.809 220.568 176.44 212.566 180.972C209.271 182.86 205.599 183.805 201.551 183.805ZM165.116 77.9607C161.35 77.9607 157.867 78.8105 154.854 80.6045C147.323 84.9477 143.274 94.1064 143.274 106.475C143.274 132.346 161.444 163.882 183.757 176.818C194.49 183.049 204.469 183.993 211.907 179.65C219.438 175.307 223.487 166.148 223.487 153.779C223.487 127.908 205.316 96.3725 183.004 83.437C176.602 79.8491 170.577 77.9607 165.116 77.9607Z" fill="#2A2F37"/>
<path d="M184.981 170.963C165.21 159.539 149.111 131.591 149.111 108.647C149.111 96.5612 153.536 88.3467 160.597 84.8532C152.594 87.7802 147.416 96.3723 147.416 109.402C147.416 132.346 163.421 160.2 183.286 171.719C192.701 177.195 201.268 177.95 207.67 174.74C201.456 177.006 193.642 175.968 184.981 170.963Z" fill="#2A2F37"/>
<path d="M219.155 150.947C219.155 173.89 203.151 183.144 183.286 171.719C163.515 160.294 147.416 132.346 147.416 109.402C147.416 86.4584 163.515 77.2053 183.286 88.63C189.594 92.3124 195.525 97.5998 200.703 103.926C206.54 111.102 211.435 119.505 214.636 128.192C217.555 135.84 219.155 143.676 219.155 150.947Z" fill="white"/>
<path d="M199.385 177.384C194.395 177.384 188.747 175.684 183.004 172.38C163.045 160.861 146.757 132.629 146.757 109.497C146.757 98.1664 150.617 89.6687 157.584 85.6087C164.551 81.5486 173.871 82.4928 183.663 88.158C189.876 91.7459 195.902 97.0334 201.268 103.548C207.199 110.819 212.095 119.222 215.39 128.003C218.402 135.934 219.909 143.865 219.909 151.041C219.909 162.371 216.049 170.869 209.082 174.929C206.163 176.534 202.868 177.384 199.385 177.384ZM167.281 84.4756C163.986 84.4756 160.973 85.231 158.337 86.7417C151.747 90.5184 148.17 98.5441 148.17 109.402C148.17 132.063 164.08 159.728 183.663 171.058C192.983 176.44 201.739 177.384 208.329 173.607C214.825 169.83 218.497 161.805 218.497 150.947C218.497 143.96 216.99 136.217 214.072 128.475C210.777 119.883 206.069 111.574 200.232 104.398C195.054 97.9776 189.029 92.7845 183.004 89.291C177.449 86.0807 172.083 84.4756 167.281 84.4756Z" fill="#2A2F37"/>
<path d="M256.52 155.32L256.52 155.32C256.194 155.146 255.834 154.748 255.551 154.175C255.273 153.613 255.113 152.972 255.113 152.416V142.405C255.113 141.82 255.282 141.585 255.346 141.534C255.364 141.519 255.378 141.513 255.414 141.514C255.462 141.517 255.575 141.54 255.753 141.658L255.784 141.678L255.816 141.695L256.074 141.832L256.074 141.832C256.401 142.006 256.76 142.405 257.043 142.977C257.321 143.539 257.481 144.18 257.481 144.736V154.748C257.481 155.233 257.328 155.452 257.248 155.516C257.214 155.543 257.177 155.559 257.121 155.56C257.059 155.562 256.946 155.546 256.778 155.457C256.778 155.457 256.778 155.457 256.778 155.457L256.52 155.32Z" stroke="#2A2F37" stroke-width="1.5"/>
<path d="M214.636 128.192L188.181 139.05L187.899 139.144C187.899 139.144 187.899 139.144 187.805 139.144L177.92 121.488L200.703 103.832C206.54 111.102 211.435 119.505 214.636 128.192Z" fill="white"/>
<path d="M187.805 139.994C187.523 139.994 187.334 139.9 187.146 139.616L177.355 121.96C177.261 121.866 177.261 121.677 177.261 121.582C177.261 121.393 177.355 121.205 177.543 121.016L200.327 103.359C200.609 103.171 201.08 103.171 201.268 103.454C207.199 110.724 212.095 119.127 215.39 127.908C215.484 128.286 215.39 128.664 215.013 128.853L188.182 139.9C188.088 139.9 188.088 139.9 187.994 139.994C187.994 139.994 187.899 139.994 187.805 139.994ZM178.861 121.771L188.088 138.389L213.695 127.814C210.494 119.6 205.975 111.763 200.515 104.965L178.861 121.771Z" fill="#2A2F37"/>
<path d="M188.36 139.031C191.152 137.414 191.139 132.15 188.331 127.273C185.523 122.396 180.984 119.753 178.192 121.369C175.401 122.986 175.414 128.25 178.221 133.127C181.029 138.004 185.568 140.647 188.36 139.031Z" fill="white"/>
<path d="M186.487 140.183C185.357 140.183 184.133 139.805 182.909 139.144C178.767 136.784 175.378 130.93 175.378 126.114C175.378 123.66 176.225 121.771 177.826 120.827C179.426 119.883 181.497 120.072 183.569 121.299C187.711 123.66 191.1 129.514 191.1 134.329C191.1 136.784 190.253 138.672 188.652 139.616C188.088 139.994 187.334 140.183 186.487 140.183ZM180.179 121.677C179.614 121.677 179.144 121.771 178.673 122.054C177.543 122.715 176.884 124.132 176.884 126.114C176.884 130.458 179.897 135.745 183.663 137.917C185.357 138.861 186.864 139.05 187.993 138.389C189.123 137.728 189.782 136.312 189.782 134.329C189.782 129.986 186.769 124.698 183.004 122.527C181.968 121.96 181.027 121.677 180.179 121.677Z" fill="#2A2F37"/>
<path d="M48.4879 268.782V262.644H47.264C46.1342 260.85 44.2513 259.151 41.5211 257.735C32.2006 252.825 17.0431 252.825 7.62854 257.735C4.89831 259.151 3.01539 260.85 1.88564 262.644H0.661743V268.782C0.661743 271.992 3.01539 275.297 7.62854 277.751C16.949 282.661 32.1065 282.661 41.5211 277.751C46.1342 275.202 48.4879 271.992 48.4879 268.782Z" fill="white"/>
<path d="M24.5745 282.095C18.3609 282.095 12.0531 280.867 7.34582 278.318C2.54438 275.769 -0.0917082 272.37 0.00243771 268.687V262.55C0.00243771 262.361 0.0965836 262.172 0.190729 262.078C0.284875 261.984 0.473167 261.889 0.661459 261.889H1.50877C2.73267 260.001 4.70973 258.396 7.34582 257.074C16.8546 252.069 32.2945 252.069 41.8974 257.074C44.4393 258.396 46.4164 260.095 47.7344 261.889H48.5817C48.9583 261.889 49.3349 262.172 49.3349 262.644V268.782C49.3349 272.464 46.6988 275.863 41.9915 278.318C37.0018 280.867 30.7881 282.095 24.5745 282.095ZM1.32048 263.305V268.687C1.32048 271.803 3.67413 274.73 7.91069 276.996C17.0428 281.812 31.9179 281.812 41.1442 276.996C45.3808 274.73 47.7344 271.803 47.7344 268.687V263.305H47.1695C46.8871 263.305 46.6988 263.211 46.6046 263.022C45.4749 261.228 43.592 259.717 41.1442 258.396C32.012 253.58 17.137 253.58 7.91069 258.396C5.36875 259.717 3.57998 261.323 2.45023 263.022C2.35609 263.211 2.07365 263.305 1.88536 263.305H1.32048Z" fill="#2A2F37"/>
<path d="M24.5749 275.297C37.7817 275.297 48.488 269.632 48.488 262.644C48.488 255.657 37.7817 249.992 24.5749 249.992C11.3681 249.992 0.661865 255.657 0.661865 262.644C0.661865 269.632 11.3681 275.297 24.5749 275.297Z" fill="white"/>
<path d="M24.5746 275.958C18.361 275.958 12.0532 274.73 7.34594 272.181C2.5445 269.631 0.00256348 266.232 0.00256348 262.644C0.00256348 258.962 2.63865 255.563 7.34594 253.108C16.8547 248.104 32.2946 248.104 41.8975 253.108C46.6989 255.657 49.2409 259.057 49.2409 262.644C49.2409 266.327 46.6048 269.726 41.8975 272.181C37.0019 274.73 30.7883 275.958 24.5746 275.958ZM24.5746 250.653C18.5493 250.653 12.524 251.881 8.00496 254.241C3.7684 256.507 1.41475 259.434 1.41475 262.55C1.41475 265.666 3.7684 268.593 8.00496 270.859C17.1371 275.674 32.0122 275.674 41.2385 270.859C45.475 268.593 47.8287 265.666 47.8287 262.55C47.8287 259.434 45.475 256.507 41.2385 254.241C36.5312 251.881 30.6 250.653 24.5746 250.653Z" fill="#2A2F37"/>
<path fill-rule="evenodd" clip-rule="evenodd" d="M14.5072 255.175C14.9078 255.175 15.2326 255.501 15.2326 255.904V266.716L40.0287 262.956C40.4248 262.896 40.7944 263.17 40.8542 263.568C40.914 263.966 40.6413 264.337 40.2452 264.397L14.6155 268.284C14.4066 268.316 14.1943 268.254 14.0341 268.116C13.874 267.977 13.7818 267.776 13.7818 267.563V255.904C13.7818 255.501 14.1066 255.175 14.5072 255.175Z" fill="#2A2F37"/>
</g>
</svg>
