<svg width="40" height="40" viewBox="0 0 40 40" fill="none" xmlns="http://www.w3.org/2000/svg">
<g opacity="0.4">
<path d="M25.9608 10.6421H14.0389C12.1361 10.6421 10.5879 12.1903 10.5879 14.0931V26.015C10.5879 27.9179 12.1361 29.4665 14.0389 29.4665H25.9608C27.8637 29.4665 29.4123 27.9183 29.4123 26.015V14.0931C29.4123 12.1903 27.8641 10.6421 25.9608 10.6421ZM19.9999 26.2512C16.5831 26.2512 13.8032 23.4713 13.8032 20.0541C13.8032 16.6373 16.5831 13.8574 19.9999 13.8574C23.4171 13.8574 26.197 16.6373 26.197 20.0541C26.197 23.4708 23.4166 26.2512 19.9999 26.2512ZM26.3962 15.1386C25.5873 15.1386 24.9296 14.4809 24.9296 13.6725C24.9296 12.8641 25.5873 12.2063 26.3962 12.2063C27.2046 12.2063 27.8623 12.8641 27.8623 13.6725C27.8623 14.4809 27.2046 15.1386 26.3962 15.1386Z" fill="white"/>
<path d="M20.0004 16.4758C18.028 16.4758 16.4219 18.081 16.4219 20.0534C16.4219 22.0267 18.028 23.6324 20.0004 23.6324C21.9737 23.6324 23.5785 22.0267 23.5785 20.0534C23.5785 18.0815 21.9732 16.4758 20.0004 16.4758Z" fill="white"/>
<path d="M20 0C8.95475 0 0 8.95475 0 20C0 31.0453 8.95475 40 20 40C31.0453 40 40 31.0453 40 20C40 8.95475 31.0453 0 20 0ZM32.0306 26.0148C32.0306 29.3621 29.3081 32.0845 25.9609 32.0845H14.0391C10.6923 32.0845 7.96943 29.3621 7.96943 26.0148V14.093C7.96943 10.7462 10.6923 8.02335 14.0391 8.02335H25.9609C29.3081 8.02335 32.0306 10.7462 32.0306 14.093V26.0148Z" fill="white"/>
</g>
</svg>
