<svg width="93" height="40" viewBox="0 0 93 40" fill="none" xmlns="http://www.w3.org/2000/svg">
<path fill-rule="evenodd" clip-rule="evenodd" d="M32.3809 0H0V32.3809H0.0020494L0.00204873 39.9998L7.62086 32.3809H32.3809V0Z" fill="#1E3DAF"/>
<path d="M6.3417 22.6001L7.82794 22.2838V10.1726L6.18359 9.85639V8.00124H10.8953V14.4943C11.2537 13.9673 11.6929 13.5597 12.2129 13.2716C12.7329 12.9764 13.3091 12.8289 13.9415 12.8289C15.1361 12.8289 16.0708 13.2259 16.7454 14.02C17.427 14.807 17.7678 16.0262 17.7678 17.6776V22.2838L19.2435 22.6001V24.4447H13.3618V22.6001L14.6899 22.2838V17.6565C14.6899 16.7711 14.5318 16.1457 14.2156 15.7802C13.9064 15.4078 13.4426 15.2216 12.8242 15.2216C12.3956 15.2216 12.0196 15.2989 11.6964 15.4535C11.3801 15.6081 11.1131 15.8259 10.8953 16.107V22.2838L12.2234 22.6001V24.4447H6.3417V22.6001Z" fill="white"/>
<path d="M20.1395 22.6001L21.6257 22.2838V15.2111L19.9813 14.8948V13.0397H24.7036V22.2838L26.1793 22.6001V24.4447H20.1395V22.6001ZM24.7036 10.3096H21.6257V8.00124H24.7036V10.3096Z" fill="white"/>
<path d="M44.8738 9.41329C46.6797 9.41329 48.0887 9.76465 49.1006 10.4674C50.1125 11.1701 50.6184 12.2206 50.6184 13.619C50.6184 14.3288 50.4287 14.9647 50.0492 15.5269C49.6768 16.082 49.1322 16.5001 48.4154 16.7812C49.336 16.978 50.0247 17.3996 50.4814 18.0461C50.9452 18.6926 51.1771 19.441 51.1771 20.2913C51.1771 21.7599 50.6922 22.8737 49.7225 23.6327C48.7527 24.3846 47.3789 24.7605 45.6011 24.7605H38.054V22.9159L39.6878 22.5997V11.5847L38.054 11.2685V9.41329H39.6878H44.8738ZM42.7656 17.9723V22.3994H45.6011C46.4162 22.3994 47.0381 22.2237 47.4668 21.8724C47.8954 21.514 48.1098 20.9869 48.1098 20.2913C48.1098 19.5394 47.9271 18.9667 47.5616 18.5731C47.1962 18.1726 46.62 17.9723 45.833 17.9723H42.7656ZM42.7656 15.8431H44.9792C45.8014 15.8431 46.4338 15.6745 46.8765 15.3372C47.3192 14.9998 47.5406 14.508 47.5406 13.8615C47.5406 13.1517 47.3157 12.6282 46.866 12.2909C46.4233 11.9536 45.7592 11.7849 44.8738 11.7849H42.7656V15.8431Z" fill="#2A2F37"/>
<path d="M52.6317 22.9159L54.1074 22.5997V15.5269L52.4736 15.2107V13.3555H56.9745L57.1115 15.0209C57.3785 14.4307 57.7229 13.9704 58.1445 13.6401C58.5661 13.3098 59.0545 13.1447 59.6096 13.1447C59.7713 13.1447 59.9399 13.1587 60.1156 13.1869C60.2983 13.2079 60.4494 13.236 60.5688 13.2712L60.2421 16.075L58.9772 16.0434C58.5275 16.0434 58.155 16.1312 57.8599 16.3069C57.5647 16.4826 57.3399 16.732 57.1853 17.0553V22.5997L58.661 22.9159V24.7605H52.6317V22.9159Z" fill="#2A2F37"/>
<path d="M68.5376 24.7605C68.4533 24.5708 68.3795 24.3775 68.3162 24.1808C68.253 23.977 68.2038 23.7732 68.1687 23.5694C67.8033 23.991 67.357 24.3319 66.83 24.5919C66.31 24.8519 65.7127 24.9819 65.0381 24.9819C63.9208 24.9819 63.0318 24.6797 62.3713 24.0754C61.7178 23.464 61.391 22.6348 61.391 21.5878C61.391 20.5196 61.8197 19.694 62.677 19.1107C63.5343 18.5275 64.7921 18.2358 66.4505 18.2358H68.0211V17.1185C68.0211 16.5704 67.863 16.1453 67.5468 15.8431C67.2305 15.5409 66.7632 15.3899 66.1449 15.3899C65.7935 15.3899 65.4808 15.432 65.2067 15.5163C64.9327 15.5936 64.7113 15.6885 64.5427 15.8009L64.3424 17.0237H62.0235L62.034 14.4939C62.5962 14.1144 63.2391 13.7947 63.9629 13.5347C64.6938 13.2747 65.4878 13.1447 66.3451 13.1447C67.7576 13.1447 68.903 13.4925 69.7814 14.1882C70.6668 14.8769 71.1095 15.8607 71.1095 17.1396V21.8513C71.1095 22.027 71.1095 22.1921 71.1095 22.3467C71.1165 22.5013 71.1306 22.6489 71.1517 22.7894L72.0898 22.9159V24.7605H68.5376ZM65.8708 22.7051C66.3346 22.7051 66.7562 22.6067 67.1357 22.4099C67.5151 22.2062 67.8103 21.9532 68.0211 21.651V19.9118H66.4505C65.797 19.9118 65.3016 20.0664 64.9643 20.3756C64.627 20.6778 64.4584 21.0432 64.4584 21.4718C64.4584 21.8583 64.5813 22.1605 64.8273 22.3783C65.0803 22.5962 65.4281 22.7051 65.8708 22.7051Z" fill="#2A2F37"/>
<path d="M73.049 22.9159L74.5352 22.5997V15.5269L72.8909 15.2107V13.3555H77.6131V22.5997L79.0888 22.9159V24.7605H73.049V22.9159ZM77.6131 10.6255H74.5352V8.31706H77.6131V10.6255Z" fill="#2A2F37"/>
<path d="M79.9321 22.9159L81.4078 22.5997V15.5269L79.774 15.2107V13.3555H84.2748L84.4119 14.9893C84.7913 14.4061 85.2586 13.9528 85.8138 13.6296C86.3689 13.3063 86.9908 13.1447 87.6795 13.1447C88.8319 13.1447 89.7314 13.5066 90.3779 14.2304C91.0244 14.9542 91.3476 16.0891 91.3476 17.635V22.5997L92.8233 22.9159V24.7605H86.9416V22.9159L88.2592 22.5997V17.6456C88.2592 16.8796 88.1046 16.3385 87.7954 16.0223C87.4862 15.699 87.0189 15.5374 86.3935 15.5374C85.9859 15.5374 85.6205 15.6217 85.2973 15.7904C84.974 15.952 84.7035 16.1839 84.4856 16.4861V22.5997L85.7294 22.9159V24.7605H79.9321V22.9159Z" fill="#2A2F37"/>
</svg>
