<svg width="91" height="39" viewBox="0 0 91 39" fill="none" xmlns="http://www.w3.org/2000/svg">
<path d="M0 0H31.7458V31.5714H0V0Z" fill="#1E3DAF"/>
<path d="M6.22032 22.0346L7.6774 21.7263V9.91788L6.06531 9.60956V7.80078H10.6846V14.1315C11.0359 13.6177 11.4665 13.2203 11.9763 12.9394C12.4861 12.6516 13.051 12.5077 13.6711 12.5077C14.8423 12.5077 15.7585 12.8948 16.4199 13.669C17.0882 14.4364 17.4223 15.6251 17.4223 17.2352V21.7263L18.869 22.0346V23.8331H13.1027V22.0346L14.4048 21.7263V17.2147C14.4048 16.3514 14.2498 15.7416 13.9398 15.3853C13.6366 15.0222 13.1819 14.8406 12.5757 14.8406C12.1554 14.8406 11.7869 14.916 11.47 15.0667C11.1599 15.2175 10.8981 15.4299 10.6846 15.7039V21.7263L11.9866 22.0346V23.8331H6.22032V22.0346Z" fill="white"/>
<path d="M19.7474 22.0346L21.2045 21.7263V14.8304L19.5924 14.522V12.7133H24.222V21.7263L25.6688 22.0346V23.8331H19.7474V22.0346ZM24.222 10.0515H21.2045V7.80078H24.222V10.0515Z" fill="white"/>
<path d="M43.9907 9.17918C45.7613 9.17918 47.1426 9.52175 48.1346 10.2069C49.1267 10.892 49.6227 11.9163 49.6227 13.2798C49.6227 13.9718 49.4367 14.5918 49.0647 15.1399C48.6996 15.6812 48.1656 16.0889 47.4629 16.3629C48.3654 16.5547 49.0406 16.9658 49.4884 17.5962C49.9431 18.2265 50.1704 18.9562 50.1704 19.7852C50.1704 21.2172 49.6951 22.3031 48.7443 23.0431C47.7936 23.7762 46.4468 24.1427 44.7038 24.1427H37.3047V22.3442L38.9064 22.0359V11.2963L37.3047 10.988V9.17918H38.9064H43.9907ZM41.924 17.5242V21.8406H44.7038C45.5029 21.8406 46.1126 21.6693 46.5329 21.3268C46.9531 20.9774 47.1633 20.4635 47.1633 19.7852C47.1633 19.0521 46.9841 18.4937 46.6259 18.11C46.2676 17.7195 45.7027 17.5242 44.9311 17.5242H41.924ZM41.924 15.4482H44.0941C44.9001 15.4482 45.5202 15.2838 45.9542 14.9549C46.3882 14.6261 46.6052 14.1465 46.6052 13.5161C46.6052 12.8241 46.3848 12.3137 45.9438 11.9848C45.5098 11.656 44.8588 11.4915 43.9907 11.4915H41.924V15.4482Z" fill="white"/>
<path d="M51.5965 22.3442L53.0433 22.0359V15.1399L51.4415 14.8316V13.0228H55.8541L55.9884 14.6466C56.2502 14.0711 56.5878 13.6223 57.0012 13.3003C57.4145 12.9783 57.8933 12.8173 58.4376 12.8173C58.596 12.8173 58.7614 12.831 58.9336 12.8584C59.1127 12.879 59.2608 12.9064 59.378 12.9406L59.0576 15.6743L57.8175 15.6435C57.3766 15.6435 57.0115 15.7292 56.7221 15.9004C56.4328 16.0717 56.2123 16.3149 56.0608 16.6301V22.0359L57.5075 22.3442V24.1427H51.5965V22.3442Z" fill="white"/>
<path d="M67.1904 24.1427C67.1077 23.9577 67.0354 23.7693 66.9734 23.5775C66.9114 23.3788 66.8632 23.1801 66.8287 22.9814C66.4705 23.3925 66.033 23.7248 65.5163 23.9783C65.0065 24.2318 64.4209 24.3585 63.7595 24.3585C62.6641 24.3585 61.7926 24.0639 61.1451 23.4747C60.5044 22.8786 60.184 22.0702 60.184 21.0493C60.184 20.0079 60.6042 19.2028 61.4447 18.6342C62.2852 18.0655 63.5184 17.7812 65.1443 17.7812H66.684V16.6918C66.684 16.1574 66.529 15.7429 66.219 15.4482C65.909 15.1536 65.4509 15.0063 64.8446 15.0063C64.5001 15.0063 64.1936 15.0474 63.9249 15.1297C63.6562 15.205 63.4392 15.2975 63.2738 15.4071L63.0775 16.5993H60.804L60.8144 14.1328C61.3655 13.7628 61.9959 13.451 62.7055 13.1975C63.422 12.944 64.2005 12.8173 65.0409 12.8173C66.4257 12.8173 67.5486 13.1564 68.4098 13.8347C69.2779 14.5062 69.7119 15.4654 69.7119 16.7123V21.3062C69.7119 21.4775 69.7119 21.6385 69.7119 21.7892C69.7188 21.94 69.7325 22.0839 69.7532 22.2209L70.6729 22.3442V24.1427H67.1904ZM64.5759 22.1387C65.0306 22.1387 65.444 22.0428 65.816 21.8509C66.188 21.6522 66.4774 21.4056 66.684 21.111V19.4152H65.1443C64.5036 19.4152 64.0179 19.566 63.6872 19.8674C63.3565 20.162 63.1912 20.5183 63.1912 20.9362C63.1912 21.3131 63.3117 21.6077 63.5529 21.8201C63.8009 22.0325 64.1419 22.1387 64.5759 22.1387Z" fill="white"/>
<path d="M71.6133 22.3442L73.0704 22.0359V15.1399L71.4583 14.8316V13.0228H76.0879V22.0359L77.5347 22.3442V24.1427H71.6133V22.3442ZM76.0879 10.361H73.0704V8.11035H76.0879V10.361Z" fill="white"/>
<path d="M78.3614 22.3442L79.8081 22.0359V15.1399L78.2064 14.8316V13.0228H82.619L82.7533 14.6158C83.1253 14.0471 83.5835 13.6052 84.1277 13.29C84.672 12.9749 85.2817 12.8173 85.9568 12.8173C87.0867 12.8173 87.9685 13.1701 88.6023 13.8758C89.2361 14.5815 89.553 15.688 89.553 17.1954V22.0359L90.9998 22.3442V24.1427H85.2334V22.3442L86.5252 22.0359V17.2056C86.5252 16.4588 86.3736 15.9313 86.0705 15.623C85.7674 15.3078 85.3092 15.1502 84.6961 15.1502C84.2965 15.1502 83.9383 15.2324 83.6213 15.3969C83.3044 15.5544 83.0392 15.7805 82.8256 16.0751V22.0359L84.045 22.3442V24.1427H78.3614V22.3442Z" fill="white"/>
<path d="M0.00012064 39L0.000121293 31.5714L7.46973 31.5714L0.00012064 39Z" fill="#1E3DAF"/>
</svg>
