<svg width="40" height="40" viewBox="0 0 40 40" fill="none" xmlns="http://www.w3.org/2000/svg">
<g opacity="0.4">
<path d="M20 40C31.0457 40 40 31.0457 40 20C40 8.95431 31.0457 0 20 0C8.95431 0 0 8.95431 0 20C0 31.0457 8.95431 40 20 40Z" fill="white"/>
<path fill-rule="evenodd" clip-rule="evenodd" d="M19.2443 28.7719H20.814C20.814 28.7719 21.2882 28.7198 21.5303 28.4588C21.7531 28.2193 21.746 27.7693 21.746 27.7693C21.746 27.7693 21.7153 25.663 22.6929 25.3529C23.6565 25.0473 24.894 27.3886 26.2056 28.2888C27.1975 28.9701 27.9512 28.8207 27.9512 28.8207L31.4582 28.7719C31.4582 28.7719 33.2929 28.6589 32.423 27.2164C32.3517 27.0984 31.9164 26.1493 29.8154 24.1992C27.6164 22.1581 27.9109 22.4882 30.5598 18.9576C32.1731 16.8075 32.818 15.4947 32.6166 14.9325C32.4244 14.397 31.2379 14.5386 31.2379 14.5386L27.2891 14.5632C27.2891 14.5632 26.9964 14.5232 26.7793 14.653C26.5672 14.7803 26.4306 15.0769 26.4306 15.0769C26.4306 15.0769 25.8056 16.7408 24.9721 18.1558C23.2137 21.1417 22.5107 21.2992 22.2233 21.1138C21.5549 20.6817 21.7217 19.378 21.7217 18.4517C21.7217 15.5582 22.1606 14.3517 20.8671 14.0394C20.4379 13.9357 20.122 13.8672 19.0243 13.8562C17.6153 13.8416 16.4228 13.8605 15.7475 14.1913C15.2983 14.4113 14.9518 14.9015 15.1628 14.9297C15.4238 14.9646 16.0149 15.089 16.3283 15.5158C16.7329 16.0662 16.7187 17.3027 16.7187 17.3027C16.7187 17.3027 16.9511 20.7088 16.1757 21.132C15.6434 21.4222 14.9133 20.8297 13.3457 18.1209C12.5424 16.7333 11.936 15.1996 11.936 15.1996C11.936 15.1996 11.819 14.9129 11.6105 14.7596C11.3573 14.5739 11.0037 14.5147 11.0037 14.5147L7.25132 14.5393C7.25132 14.5393 6.68802 14.555 6.48124 14.7999C6.29728 15.0177 6.46662 15.4684 6.46662 15.4684C6.46662 15.4684 9.40434 22.3413 12.7307 25.8049C15.7807 28.9804 19.2443 28.7719 19.2443 28.7719Z" fill="#2A2F37"/>
</g>
</svg>
